<?xml version="1.0" encoding="UTF-8"?>
<svg id="Capa_1" xmlns="http://www.w3.org/2000/svg" version="1.1" viewBox="0 0 2100.1 2100.1">
  <!-- Generator: Adobe Illustrator 29.7.1, SVG Export Plug-In . SVG Version: 2.1.1 Build 8)  -->
  <defs>
    <style>
      .st0 {
        fill: #a7bd43;
      }

      .st1 {
        fill: #00a19a;
      }
    </style>
  </defs>
  <path class="st0" d="M1053.2,1589.8c-18,26.8-34.5,54.6-52.9,81.2-25.7,37-57.3,80.1-87.7,113.1-18.1,19.6-31.9,30-60.8,26.2-26-3.4-50.7-37.2-71.7-51.7,72.8-80.3,140.3-166.6,191.7-262.5,27.7-51.6,49.5-106.1,75.1-158.6,1.5-3.2,2.9-7.7,6.3-9.3,36.2,79.5,71,159.6,117.8,233.5,44.2,69.9,96.7,134,152,195.4.4,2.2-6.2,7.9-8.1,9.7-13.7,12.9-43.9,41.1-61.9,43.4-42.1,5.6-59.5-23.4-82.9-51.7-43.4-52.5-83.4-109.6-116.9-168.6v-.1Z"/>
  <path class="st1" d="M1053.2,1160.2c-2.3.1-2.5,2.5-3.3,4-9.5,18.8-17.2,43-26,62.9-85.2,193.3-205.3,374.9-351.6,527.2-40.4,42.1-66.4,80.5-125.7,38.5-127.6-90.4-236.5-249.1-286.6-396.4C92.1,902.3,414,374.3,927.6,298.1c567.4-84.1,1049.2,413,948,977.6-35.3,197.1-153.2,397.1-315.6,515.5-63.8,46.5-93.2-.3-136.5-45.9-159.6-168.1-285.9-369.2-370.3-585.1ZM1515.9,1673.5c3,1.8,15.5-10,18.8-12.9,371.1-331.2,293.3-935.6-142.4-1169.4C884.1,218.6,277.8,628.1,335.7,1198.9c18.5,182.3,109.8,355.7,248.5,474.1h3.2c179.9-187.1,315.8-416.4,393.8-664.5,25.3-80.5,45.2-162.9,68.8-243.9l3.2-4.2c29.4,101.7,53.6,205.4,88.9,305.3,78.8,223.6,207,432.7,371.2,603.1s2.3,4.6,2.6,4.7h0Z"/>
</svg>